# xmcd
#
# Track frame offsets:
#	150
#	11100
#	21415
#	32087
#	45732
#	59000
#	69550
#	83965
#	96482
#	106895
#
# Disc length: 1583
#
# Revision: 1
# Processed by: cddbd v1.5.1PL0 Copyright (c) Steve Scherf et al.
# Submitted via: WhereIsIt 3.26
# Normalized: r0:DSETVAR1
#
DISCID=8a062d0a
DTITLE=Various Artist - Country Stars
DYEAR=1900
DGENRE=
TTITLE0=Roger Miller - King Of The Road
TTITLE1=George Jones - Walk Through This World With Me
TTITLE2=Hank Williams Jr - Ain't That A Shame
TTITLE3=Donna Fargo - You Can't Be A Beacon If Your Light Don't Shine
TTITLE4=The Kendalls - Pittsburgh Stealers
TTITLE5=Waylon Jennings - Burning Memories
TTITLE6=Johnny Lee - Long Black Veil
TTITLE7=Charlie Pride - I'm Gonna Love Her On The Radio
TTITLE8=Dave Dudley - Six Days On The Road
TTITLE9=Lynn Anderson - How Can I Unlove You?
EXTD=
EXTT0=
EXTT1=
EXTT2=
EXTT3=
EXTT4=
EXTT5=
EXTT6=
EXTT7=
EXTT8=
EXTT9=
PLAYORDER=
